<?xml version="1.0" standalone="no"?>
<!DOCTYPE svg PUBLIC "-//W3C//DTD SVG 20010904//EN"
>
<svg version="1.0" xmlns="http://www.w3.org/2000/svg"
 width="1000.000000pt" height="1000.000000pt" viewBox="0 0 1000.000000 1000.000000"
 preserveAspectRatio="xMidYMid meet">
<metadata>
Created by potrace 1.14, written by Peter Selinger 2001-2017
</metadata>
<g transform="translate(0.000000,1000.000000) scale(0.100000,-0.100000)"
fill="#000000" stroke="none">
<path d="M5940 8513 l-1065 -1068 1068 1065 c587 586 1067 1066 1067 1067 0 2
-1 3 -3 3 -1 0 -481 -480 -1067 -1067z"/>
<path d="M5965 8500 l-1060 -1060 -90 17 c-70 14 -146 18 -340 18 -272 0 -356
-9 -583 -65 -173 -43 -475 -151 -460 -165 2 -3 36 4 74 15 237 69 482 121 689
145 147 18 498 22 588 8 l48 -8 -79 -78 -78 -78 -205 -3 c-286 -5 -518 -35
-859 -111 -299 -67 -321 -77 -617 -262 -145 -91 -262 -167 -259 -170 3 -3 151
43 331 101 338 110 583 180 614 174 18 -3 18 -8 -5 -116 -28 -136 -86 -370
-154 -627 l-51 -190 -202 -205 -202 -205 198 195 c108 107 197 188 197 180 0
-8 -93 -106 -206 -220 -114 -113 -203 -196 -199 -185 4 11 8 29 11 39 2 10 35
132 73 270 123 445 203 748 197 753 -3 3 -8 0 -10 -8 -3 -8 -41 -124 -85 -259
-44 -135 -123 -382 -175 -550 l-95 -304 -1278 -1281 -1278 -1280 1277 1275
c703 701 1275 1265 1272 1254 -3 -11 -572 -587 -1265 -1280 -692 -692 -1259
-1265 -1259 -1272 0 -26 176 -366 273 -527 231 -386 476 -696 803 -1015 697
-680 1546 -1129 2493 -1320 1648 -331 3339 179 4526 1365 1423 1424 1853 3557
1094 5427 -62 153 -205 445 -293 597 -213 369 -451 682 -756 995 -319 327
-628 572 -1015 804 -161 96 -501 272 -526 272 -8 0 -491 -477 -1074 -1060z
m-1105 -1097 c0 -14 -155 -163 -170 -163 -8 0 23 38 70 85 79 79 100 96 100
78z m-750 -718 c-222 -222 -405 -403 -406 -402 -1 1 24 109 56 239 32 131 69
296 82 368 16 92 27 132 38 135 62 19 439 60 575 64 l60 1 -405 -405z m15 -25
c-237 -237 -432 -425 -434 -419 -5 15 829 849 849 849 8 0 -179 -194 -415
-430z"/>
</g>
</svg>
